<?xml version="1.0" encoding="UTF-8" standalone="no"?>
<svg
   viewBox="0 0 24 24"
   version="1.1"
   id="svg1"
   sodipodi:docname="crop_shape_round_rect.svg"
   width="24"
   height="24"
   inkscape:version="1.3.2 (091e20e, 2023-11-25, custom)"
   xmlns:inkscape="http://www.inkscape.org/namespaces/inkscape"
   xmlns:sodipodi="http://sodipodi.sourceforge.net/DTD/sodipodi-0.dtd"
   xmlns="http://www.w3.org/2000/svg"
   xmlns:svg="http://www.w3.org/2000/svg">
  <defs
     id="defs1" />
  <sodipodi:namedview
     id="namedview1"
     pagecolor="#ffffff"
     bordercolor="#000000"
     borderopacity="0.25"
     inkscape:showpageshadow="2"
     inkscape:pageopacity="0.0"
     inkscape:pagecheckerboard="0"
     inkscape:deskcolor="#d1d1d1"
     showgrid="false"
     inkscape:zoom="25"
     inkscape:cx="12"
     inkscape:cy="11.98"
     inkscape:window-width="1920"
     inkscape:window-height="1009"
     inkscape:window-x="-8"
     inkscape:window-y="-8"
     inkscape:window-maximized="1"
     inkscape:current-layer="svg1" />
  <path
     d="M 5,0 C 2.25,0 0,2.25 0,5 v 14 c 0,2.75 2.25,5 5,5 h 14 c 2.75,0 5,-2.25 5,-5 V 5 C 24,2.25 21.75,0 19,0 Z m 0,2 h 14 c 1.668,0 3,1.332 3,3 v 14 c 0,1.668 -1.332,3 -3,3 H 5 C 3.332,22 2,20.668 2,19 V 5 C 2,3.332 3.332,2 5,2"
     id="path1" />
</svg>
